<?xml version="1.0" standalone="no"?>
<!DOCTYPE svg PUBLIC "-//W3C//DTD SVG 20010904//EN"
 "http://www.w3.org/TR/2001/REC-SVG-20010904/DTD/svg10.dtd">
<svg version="1.0" xmlns="http://www.w3.org/2000/svg"
 width="256.000000pt" height="256.000000pt" viewBox="0 0 256.000000 256.000000"
 preserveAspectRatio="xMidYMid meet">

<g transform="translate(0.000000,256.000000) scale(0.100000,-0.100000)"
fill="#000000" stroke="none">
<path d="M1105 2409 c-170 -25 -380 -112 -521 -217 -303 -226 -474 -565 -474
-943 0 -195 38 -357 126 -535 116 -233 343 -454 587 -570 52 -24 82 -33 88
-27 6 6 9 41 7 79 l-3 69 -95 6 c-166 9 -252 67 -320 213 -39 85 -56 106 -133
169 -40 32 -47 43 -47 73 0 74 109 95 216 41 31 -16 78 -56 127 -110 66 -74
83 -87 122 -95 45 -10 120 -2 135 14 4 5 15 26 23 46 l16 38 -68 20 c-225 67
-361 200 -418 411 -13 46 -18 102 -18 199 0 149 11 198 68 300 30 52 31 59 32
180 2 223 36 273 168 250 35 -6 106 -32 164 -61 97 -47 105 -49 145 -39 85 21
305 24 426 6 109 -17 113 -17 140 2 75 54 226 112 288 112 13 0 36 -11 53 -25
42 -36 66 -145 58 -267 -6 -86 -5 -91 24 -138 61 -99 73 -151 73 -310 0 -161
-13 -230 -65 -335 -71 -145 -195 -235 -395 -285 l-41 -10 18 -52 c15 -44 18
-87 19 -261 0 -172 2 -209 15 -213 19 -8 159 54 258 113 92 56 244 195 317
291 71 94 164 286 196 407 35 135 44 357 20 490 -45 242 -143 438 -305 608
-183 193 -429 321 -685 356 -89 13 -254 12 -341 0z"/>
</g>
</svg>
